<mxfile host="app.diagrams.net" agent="Mozilla/5.0 (Windows NT 10.0; Win64; x64) AppleWebKit/537.36 (KHTML, like Gecko) Chrome/129.0.0.0 Safari/537.36 Edg/129.0.0.0" version="24.8.0">
  <diagram id="zNMGI6wU0Mi8Qe2H5Q59" name="Dataflyt inn">
    <mxGraphModel dx="1434" dy="840" grid="1" gridSize="10" guides="1" tooltips="1" connect="1" arrows="1" fold="1" page="1" pageScale="1" pageWidth="827" pageHeight="1169" math="0" shadow="0">
      <root>
        <mxCell id="0" />
        <mxCell id="1" parent="0" />
        <mxCell id="lnmgxQ-TkLNhtuKLghFE-9" style="edgeStyle=none;rounded=0;orthogonalLoop=1;jettySize=auto;html=1;strokeColor=#707070;strokeWidth=2;fontColor=#707070;entryX=0;entryY=0.364;entryDx=0;entryDy=0;entryPerimeter=0;" parent="1" source="lnmgxQ-TkLNhtuKLghFE-3" target="lnmgxQ-TkLNhtuKLghFE-13" edge="1">
          <mxGeometry relative="1" as="geometry">
            <mxPoint x="200" y="180" as="targetPoint" />
          </mxGeometry>
        </mxCell>
        <object placeholders="1" c4Name="E-post" c4Type="Person" c4Description="" label="&lt;b&gt;%c4Name%&lt;/b&gt;&lt;div&gt;%c4Description%&lt;/div&gt;" id="lnmgxQ-TkLNhtuKLghFE-3">
          <mxCell style="html=1;dashed=0;whitespace=wrap;fillColor=#08427b;strokeColor=none;fontColor=#ffffff;shape=mxgraph.c4.person;align=center;metaEdit=1;points=[[0.5,0,0],[1,0.5,0],[1,0.75,0],[0.75,1,0],[0.5,1,0],[0.25,1,0],[0,0.75,0],[0,0.5,0]];metaData={&quot;c4Type&quot;:{&quot;editable&quot;:false}};" parent="1" vertex="1">
            <mxGeometry x="10" y="15" width="70" height="80" as="geometry" />
          </mxCell>
        </object>
        <object placeholders="1" c4Name="Postmottak" c4Type="Frontend" c4Description="" label="&lt;b&gt;%c4Name%&lt;/b&gt;&lt;div&gt;[%c4Type%]&lt;/div&gt;&lt;br&gt;&lt;div&gt;%c4Description%&lt;/div&gt;" link="https://konkurransetilsynet.sharepoint.com/sites/Seksjonforinformasjonsforvaltning/SitePages/p360.aspx" id="lnmgxQ-TkLNhtuKLghFE-13">
          <mxCell style="rounded=1;whiteSpace=wrap;html=1;labelBackgroundColor=none;fillColor=#1168BD;fontColor=#ffffff;align=center;arcSize=10;strokeColor=#1168BD;metaEdit=1;metaData={&quot;c4Type&quot;:{&quot;editable&quot;:false}};points=[[0.25,0,0],[0.5,0,0],[0.75,0,0],[1,0.25,0],[1,0.5,0],[1,0.75,0],[0.75,1,0],[0.5,1,0],[0.25,1,0],[0,0.75,0],[0,0.5,0],[0,0.25,0]];" parent="1" vertex="1">
            <mxGeometry x="200" y="20" width="160" height="100" as="geometry" />
          </mxCell>
        </object>
        <mxCell id="5p-e-0pEdj6wU1898hby-8" value="" style="endArrow=classic;html=1;rounded=0;entryX=0;entryY=0.694;entryDx=0;entryDy=0;entryPerimeter=0;exitX=1.007;exitY=0.618;exitDx=0;exitDy=0;exitPerimeter=0;strokeWidth=2;strokeColor=#707070;" parent="1" source="5p-e-0pEdj6wU1898hby-22" target="lnmgxQ-TkLNhtuKLghFE-13" edge="1">
          <mxGeometry relative="1" as="geometry">
            <mxPoint x="100" y="240" as="sourcePoint" />
            <mxPoint x="200" y="105" as="targetPoint" />
          </mxGeometry>
        </mxCell>
        <mxCell id="5p-e-0pEdj6wU1898hby-9" value="Skanner" style="edgeLabel;resizable=0;html=1;;align=center;verticalAlign=middle;" parent="5p-e-0pEdj6wU1898hby-8" connectable="0" vertex="1">
          <mxGeometry relative="1" as="geometry">
            <mxPoint x="-8" as="offset" />
          </mxGeometry>
        </mxCell>
        <mxCell id="Lnd7dqwJ6gBZuBjxFB_a-3" value="" style="edgeStyle=orthogonalEdgeStyle;rounded=0;orthogonalLoop=1;jettySize=auto;html=1;entryX=0;entryY=0.5;entryDx=0;entryDy=0;entryPerimeter=0;strokeWidth=2;strokeColor=#707070;exitX=1;exitY=0.25;exitDx=0;exitDy=0;exitPerimeter=0;" parent="1" target="lhokiOedD1wRkCvFBzF--3" edge="1" source="5p-e-0pEdj6wU1898hby-11">
          <mxGeometry relative="1" as="geometry">
            <mxPoint x="360" y="310" as="sourcePoint" />
          </mxGeometry>
        </mxCell>
        <object placeholders="1" c4Name="Datarom" c4Type="Frontend" c4Description="" label="&lt;b&gt;%c4Name%&lt;/b&gt;&lt;div&gt;[%c4Type%]&lt;/div&gt;&lt;br&gt;&lt;div&gt;%c4Description%&lt;/div&gt;" link="data:page/id,7UhaJ9ljh7ebol46HkWr" id="5p-e-0pEdj6wU1898hby-11">
          <mxCell style="rounded=1;whiteSpace=wrap;html=1;labelBackgroundColor=none;fillColor=#1168BD;fontColor=#ffffff;align=center;arcSize=10;strokeColor=#1168BD;metaEdit=1;metaData={&quot;c4Type&quot;:{&quot;editable&quot;:false}};points=[[0.25,0,0],[0.5,0,0],[0.75,0,0],[1,0.25,0],[1,0.5,0],[1,0.75,0],[0.75,1,0],[0.5,1,0],[0.25,1,0],[0,0.75,0],[0,0.5,0],[0,0.25,0]];" parent="1" vertex="1">
            <mxGeometry x="200" y="260" width="160" height="100" as="geometry" />
          </mxCell>
        </object>
        <object placeholders="1" c4Name="Ny kt.no" c4Type="Frontend" c4Description="" label="&lt;b&gt;%c4Name%&lt;/b&gt;&lt;div&gt;[%c4Type%]&lt;/div&gt;&lt;br&gt;&lt;div&gt;%c4Description%&lt;/div&gt;" link="https://konkurransetilsynet.sharepoint.com/sites/Seksjonforinformasjonsforvaltning/SitePages/p360.aspx#avansert-s%C3%B8k-1" id="5p-e-0pEdj6wU1898hby-13">
          <mxCell style="rounded=1;whiteSpace=wrap;html=1;labelBackgroundColor=none;fillColor=#1168BD;fontColor=#ffffff;align=center;arcSize=10;strokeColor=#1168BD;metaEdit=1;metaData={&quot;c4Type&quot;:{&quot;editable&quot;:false}};points=[[0.25,0,0],[0.5,0,0],[0.75,0,0],[1,0.25,0],[1,0.5,0],[1,0.75,0],[0.75,1,0],[0.5,1,0],[0.25,1,0],[0,0.75,0],[0,0.5,0],[0,0.25,0]];" parent="1" vertex="1">
            <mxGeometry x="200" y="140" width="160" height="100" as="geometry" />
          </mxCell>
        </object>
        <object placeholders="1" c4Name="FTK Lab" c4Type="Software System" c4Description="" label="&lt;b&gt;%c4Name%&lt;/b&gt;&lt;div&gt;[%c4Type%]&lt;/div&gt;&lt;br&gt;&lt;div&gt;%c4Description%&lt;/div&gt;" id="5p-e-0pEdj6wU1898hby-16">
          <mxCell style="rounded=1;whiteSpace=wrap;html=1;labelBackgroundColor=none;fillColor=#d80073;fontColor=#ffffff;align=center;arcSize=10;strokeColor=#A50040;metaEdit=1;metaData={&quot;c4Type&quot;:{&quot;editable&quot;:false}};points=[[0.25,0,0],[0.5,0,0],[0.75,0,0],[1,0.25,0],[1,0.5,0],[1,0.75,0],[0.75,1,0],[0.5,1,0],[0.25,1,0],[0,0.75,0],[0,0.5,0],[0,0.25,0]];" parent="1" vertex="1">
            <mxGeometry x="200" y="380" width="160" height="100" as="geometry" />
          </mxCell>
        </object>
        <mxCell id="5p-e-0pEdj6wU1898hby-18" style="edgeStyle=none;rounded=0;orthogonalLoop=1;jettySize=auto;html=1;strokeColor=#707070;strokeWidth=2;fontColor=#707070;exitX=0.987;exitY=0.625;exitDx=0;exitDy=0;exitPerimeter=0;entryX=0;entryY=0.5;entryDx=0;entryDy=0;entryPerimeter=0;" parent="1" source="5p-e-0pEdj6wU1898hby-24" target="5p-e-0pEdj6wU1898hby-11" edge="1">
          <mxGeometry relative="1" as="geometry">
            <mxPoint x="198" y="250" as="targetPoint" />
            <mxPoint x="100" y="350" as="sourcePoint" />
          </mxGeometry>
        </mxCell>
        <mxCell id="5p-e-0pEdj6wU1898hby-20" style="edgeStyle=none;rounded=0;orthogonalLoop=1;jettySize=auto;html=1;strokeColor=#707070;strokeWidth=2;fontColor=#707070;entryX=0;entryY=0.5;entryDx=0;entryDy=0;entryPerimeter=0;exitX=1.027;exitY=0.638;exitDx=0;exitDy=0;exitPerimeter=0;" parent="1" source="lhokiOedD1wRkCvFBzF--22" target="5p-e-0pEdj6wU1898hby-16" edge="1">
          <mxGeometry relative="1" as="geometry">
            <mxPoint x="200" y="435" as="targetPoint" />
            <mxPoint x="79.08999999999992" y="457.27999999999975" as="sourcePoint" />
          </mxGeometry>
        </mxCell>
        <object placeholders="1" c4Name="Papirpost" c4Type="Person" c4Description="" label="&lt;b&gt;%c4Name%&lt;/b&gt;&lt;div&gt;%c4Description%&lt;/div&gt;" id="5p-e-0pEdj6wU1898hby-22">
          <mxCell style="html=1;dashed=0;whitespace=wrap;fillColor=#08427b;strokeColor=none;fontColor=#ffffff;shape=mxgraph.c4.person;align=center;metaEdit=1;points=[[0.5,0,0],[1,0.5,0],[1,0.75,0],[0.75,1,0],[0.5,1,0],[0.25,1,0],[0,0.75,0],[0,0.5,0]];metaData={&quot;c4Type&quot;:{&quot;editable&quot;:false}};" parent="1" vertex="1">
            <mxGeometry x="70" y="40" width="70" height="80" as="geometry" />
          </mxCell>
        </object>
        <object placeholders="1" c4Name="Data" c4Type="Person" c4Description="" label="&lt;b&gt;%c4Name%&lt;/b&gt;&lt;div&gt;%c4Description%&lt;/div&gt;" id="5p-e-0pEdj6wU1898hby-24">
          <mxCell style="html=1;dashed=0;whitespace=wrap;fillColor=#08427b;strokeColor=none;fontColor=#ffffff;shape=mxgraph.c4.person;align=center;metaEdit=1;points=[[0.5,0,0],[1,0.5,0],[1,0.75,0],[0.75,1,0],[0.5,1,0],[0.25,1,0],[0,0.75,0],[0,0.5,0]];metaData={&quot;c4Type&quot;:{&quot;editable&quot;:false}};" parent="1" vertex="1">
            <mxGeometry x="10" y="260" width="70" height="80" as="geometry" />
          </mxCell>
        </object>
        <object placeholders="1" c4Name="Skjema" c4Type="Person" c4Description="" label="&lt;b&gt;%c4Name%&lt;/b&gt;&lt;div&gt;%c4Description%&lt;/div&gt;" id="5p-e-0pEdj6wU1898hby-25">
          <mxCell style="html=1;dashed=0;whitespace=wrap;fillColor=#08427b;strokeColor=none;fontColor=#ffffff;shape=mxgraph.c4.person;align=center;metaEdit=1;points=[[0.5,0,0],[1,0.5,0],[1,0.75,0],[0.75,1,0],[0.5,1,0],[0.25,1,0],[0,0.75,0],[0,0.5,0]];metaData={&quot;c4Type&quot;:{&quot;editable&quot;:false}};" parent="1" vertex="1">
            <mxGeometry x="10" y="140" width="70" height="80" as="geometry" />
          </mxCell>
        </object>
        <mxCell id="5p-e-0pEdj6wU1898hby-26" style="edgeStyle=none;rounded=0;orthogonalLoop=1;jettySize=auto;html=1;strokeColor=#707070;strokeWidth=2;fontColor=#707070;exitX=0.997;exitY=0.615;exitDx=0;exitDy=0;exitPerimeter=0;entryX=0;entryY=0.5;entryDx=0;entryDy=0;entryPerimeter=0;" parent="1" source="5p-e-0pEdj6wU1898hby-25" target="5p-e-0pEdj6wU1898hby-13" edge="1">
          <mxGeometry relative="1" as="geometry">
            <mxPoint x="200" y="300" as="targetPoint" />
            <mxPoint x="79" y="350" as="sourcePoint" />
          </mxGeometry>
        </mxCell>
        <object placeholders="1" c4Description="" label="&lt;b style=&quot;font-size: 12px;&quot;&gt;%c4Name%&lt;/b&gt;&lt;div style=&quot;font-size: 12px;&quot;&gt;[%c4Type%]&lt;/div&gt;&lt;br style=&quot;font-size: 12px;&quot;&gt;&lt;div style=&quot;font-size: 12px;&quot;&gt;%c4Description%&lt;/div&gt;" c4Name="Azure Files" c4Type="Data Storage" id="lhokiOedD1wRkCvFBzF--1">
          <mxCell style="shape=cylinder;whiteSpace=wrap;html=1;boundedLbl=1;rounded=0;labelBackgroundColor=none;fillColor=#438DD5;fontSize=12;fontColor=#ffffff;align=center;strokeColor=#3C7FC0;metaEdit=1;points=[[0.5,0,0],[1,0.25,0],[1,0.5,0],[1,0.75,0],[0.5,1,0],[0,0.75,0],[0,0.5,0],[0,0.25,0]];metaData={&quot;c4Type&quot;:{&quot;editable&quot;:false}};" parent="1" vertex="1">
            <mxGeometry x="430" y="310" width="160" height="105" as="geometry" />
          </mxCell>
        </object>
        <object placeholders="1" c4Name="FTK intern sone" c4Type="Software System" c4Description="FTK " label="&lt;b&gt;%c4Name%&lt;/b&gt;&lt;div&gt;[%c4Type%]&lt;/div&gt;&lt;br&gt;&lt;div&gt;%c4Description%&lt;/div&gt;" id="lhokiOedD1wRkCvFBzF--2">
          <mxCell style="rounded=1;whiteSpace=wrap;html=1;labelBackgroundColor=none;fillColor=#fad9d5;align=center;arcSize=10;strokeColor=#ae4132;metaEdit=1;metaData={&quot;c4Type&quot;:{&quot;editable&quot;:false}};points=[[0.25,0,0],[0.5,0,0],[0.75,0,0],[1,0.25,0],[1,0.5,0],[1,0.75,0],[0.75,1,0],[0.5,1,0],[0.25,1,0],[0,0.75,0],[0,0.5,0],[0,0.25,0]];" parent="1" vertex="1">
            <mxGeometry x="640" y="380" width="160" height="100" as="geometry" />
          </mxCell>
        </object>
        <object placeholders="1" c4Description="" label="&lt;b style=&quot;font-size: 12px;&quot;&gt;%c4Name%&lt;/b&gt;&lt;div style=&quot;font-size: 12px;&quot;&gt;[%c4Type%]&lt;/div&gt;&lt;br style=&quot;font-size: 12px;&quot;&gt;&lt;div style=&quot;font-size: 12px;&quot;&gt;%c4Description%&lt;/div&gt;" c4Name="Sharepoint/Teams" c4Type="Data Storage" id="lhokiOedD1wRkCvFBzF--3">
          <mxCell style="shape=cylinder;whiteSpace=wrap;html=1;boundedLbl=1;rounded=0;labelBackgroundColor=none;fillColor=#438DD5;fontSize=12;fontColor=#ffffff;align=center;strokeColor=#3C7FC0;metaEdit=1;points=[[0.5,0,0],[1,0.25,0],[1,0.5,0],[1,0.75,0],[0.5,1,0],[0,0.75,0],[0,0.5,0],[0,0.25,0]];metaData={&quot;c4Type&quot;:{&quot;editable&quot;:false}};" parent="1" vertex="1">
            <mxGeometry x="430" y="60" width="160" height="105" as="geometry" />
          </mxCell>
        </object>
        <object placeholders="1" c4Description="" label="&lt;b style=&quot;font-size: 12px;&quot;&gt;%c4Name%&lt;/b&gt;&lt;div style=&quot;font-size: 12px;&quot;&gt;[%c4Type%]&lt;/div&gt;&lt;br style=&quot;font-size: 12px;&quot;&gt;&lt;div style=&quot;font-size: 12px;&quot;&gt;%c4Description%&lt;/div&gt;" c4Name="Nytt journalføringssystem" c4Type="Data Storage" id="lhokiOedD1wRkCvFBzF--4">
          <mxCell style="shape=cylinder;whiteSpace=wrap;html=1;boundedLbl=1;rounded=0;labelBackgroundColor=none;fillColor=#438DD5;fontSize=12;fontColor=#ffffff;align=center;strokeColor=#3C7FC0;metaEdit=1;points=[[0.5,0,0],[1,0.25,0],[1,0.5,0],[1,0.75,0],[0.5,1,0],[0,0.75,0],[0,0.5,0],[0,0.25,0]];metaData={&quot;c4Type&quot;:{&quot;editable&quot;:false}};" parent="1" vertex="1">
            <mxGeometry x="430" y="190" width="160" height="105" as="geometry" />
          </mxCell>
        </object>
        <mxCell id="lhokiOedD1wRkCvFBzF--8" style="edgeStyle=none;rounded=0;orthogonalLoop=1;jettySize=auto;html=1;strokeColor=#707070;strokeWidth=2;fontColor=#707070;entryX=0.5;entryY=0;entryDx=0;entryDy=0;entryPerimeter=0;exitX=0.5;exitY=1;exitDx=0;exitDy=0;exitPerimeter=0;" parent="1" source="lhokiOedD1wRkCvFBzF--3" target="lhokiOedD1wRkCvFBzF--4" edge="1">
          <mxGeometry relative="1" as="geometry">
            <mxPoint x="680" y="146.03" as="targetPoint" />
            <mxPoint x="610" y="145" as="sourcePoint" />
          </mxGeometry>
        </mxCell>
        <object placeholders="1" c4Name="eInnsyn" c4Type="Frontend" c4Description="" label="&lt;b&gt;%c4Name%&lt;/b&gt;&lt;div&gt;[%c4Type%]&lt;/div&gt;&lt;br&gt;&lt;div&gt;%c4Description%&lt;/div&gt;" link="data:page/id,7UhaJ9ljh7ebol46HkWr" id="lhokiOedD1wRkCvFBzF--9">
          <mxCell style="rounded=1;whiteSpace=wrap;html=1;labelBackgroundColor=none;fillColor=#08427b;align=center;arcSize=10;strokeColor=#82b366;metaEdit=1;metaData={&quot;c4Type&quot;:{&quot;editable&quot;:false}};points=[[0.25,0,0],[0.5,0,0],[0.75,0,0],[1,0.25,0],[1,0.5,0],[1,0.75,0],[0.75,1,0],[0.5,1,0],[0.25,1,0],[0,0.75,0],[0,0.5,0],[0,0.25,0]];gradientColor=none;dashed=0;verticalAlign=middle;fontFamily=Helvetica;fontSize=12;fontColor=#ffffff;" parent="1" vertex="1">
            <mxGeometry x="640" y="20" width="160" height="100" as="geometry" />
          </mxCell>
        </object>
        <mxCell id="lhokiOedD1wRkCvFBzF--10" style="edgeStyle=none;rounded=0;orthogonalLoop=1;jettySize=auto;html=1;strokeColor=#707070;strokeWidth=2;fontColor=#707070;exitX=1;exitY=0.5;exitDx=0;exitDy=0;exitPerimeter=0;entryX=0.5;entryY=1;entryDx=0;entryDy=0;entryPerimeter=0;" parent="1" source="lhokiOedD1wRkCvFBzF--4" target="lhokiOedD1wRkCvFBzF--9" edge="1">
          <mxGeometry relative="1" as="geometry">
            <mxPoint x="650" y="201" as="targetPoint" />
            <mxPoint x="600" y="201" as="sourcePoint" />
          </mxGeometry>
        </mxCell>
        <mxCell id="lhokiOedD1wRkCvFBzF--14" style="edgeStyle=none;rounded=0;orthogonalLoop=1;jettySize=auto;html=1;strokeColor=#707070;strokeWidth=2;fontColor=#707070;exitX=1.004;exitY=0.645;exitDx=0;exitDy=0;exitPerimeter=0;startArrow=classic;startFill=1;dashed=1;entryX=0;entryY=0.5;entryDx=0;entryDy=0;entryPerimeter=0;" parent="1" source="lhokiOedD1wRkCvFBzF--1" target="lhokiOedD1wRkCvFBzF--2" edge="1">
          <mxGeometry relative="1" as="geometry">
            <mxPoint x="646" y="398" as="targetPoint" />
            <mxPoint x="575" y="395" as="sourcePoint" />
          </mxGeometry>
        </mxCell>
        <mxCell id="lhokiOedD1wRkCvFBzF--19" value="" style="endArrow=classic;html=1;rounded=0;entryX=1;entryY=0.25;entryDx=0;entryDy=0;entryPerimeter=0;exitX=0;exitY=0.25;exitDx=0;exitDy=0;exitPerimeter=0;strokeWidth=2;strokeColor=#707070;" parent="1" source="lhokiOedD1wRkCvFBzF--9" target="lnmgxQ-TkLNhtuKLghFE-13" edge="1">
          <mxGeometry relative="1" as="geometry">
            <mxPoint x="461.5" y="15" as="sourcePoint" />
            <mxPoint x="578.5" y="-67" as="targetPoint" />
          </mxGeometry>
        </mxCell>
        <mxCell id="lhokiOedD1wRkCvFBzF--20" value="Innsynskrav" style="edgeLabel;resizable=0;html=1;;align=center;verticalAlign=middle;" parent="lhokiOedD1wRkCvFBzF--19" connectable="0" vertex="1">
          <mxGeometry relative="1" as="geometry" />
        </mxCell>
        <object placeholders="1" c4Name="Beslag" c4Type="Person" c4Description="" label="&lt;b&gt;%c4Name%&lt;/b&gt;&lt;div&gt;%c4Description%&lt;/div&gt;" id="lhokiOedD1wRkCvFBzF--22">
          <mxCell style="html=1;dashed=0;whitespace=wrap;fillColor=#08427b;strokeColor=none;fontColor=#ffffff;shape=mxgraph.c4.person;align=center;metaEdit=1;points=[[0.5,0,0],[1,0.5,0],[1,0.75,0],[0.75,1,0],[0.5,1,0],[0.25,1,0],[0,0.75,0],[0,0.5,0]];metaData={&quot;c4Type&quot;:{&quot;editable&quot;:false}};" parent="1" vertex="1">
            <mxGeometry x="10" y="380" width="70" height="80" as="geometry" />
          </mxCell>
        </object>
        <object placeholders="1" c4Name="MLP" c4Type="Software System" c4Description="" label="&lt;b&gt;%c4Name%&lt;/b&gt;&lt;div&gt;[%c4Type%]&lt;/div&gt;&lt;br&gt;&lt;div&gt;%c4Description%&lt;/div&gt;" id="lhokiOedD1wRkCvFBzF--23">
          <mxCell style="rounded=1;whiteSpace=wrap;html=1;labelBackgroundColor=none;fillColor=#fad9d5;align=center;arcSize=10;strokeColor=#ae4132;metaEdit=1;metaData={&quot;c4Type&quot;:{&quot;editable&quot;:false}};points=[[0.25,0,0],[0.5,0,0],[0.75,0,0],[1,0.25,0],[1,0.5,0],[1,0.75,0],[0.75,1,0],[0.5,1,0],[0.25,1,0],[0,0.75,0],[0,0.5,0],[0,0.25,0]];" parent="1" vertex="1">
            <mxGeometry x="640" y="260" width="160" height="100" as="geometry" />
          </mxCell>
        </object>
        <mxCell id="lhokiOedD1wRkCvFBzF--24" style="edgeStyle=none;rounded=0;orthogonalLoop=1;jettySize=auto;html=1;strokeColor=#707070;strokeWidth=2;fontColor=#707070;exitX=0;exitY=0.5;exitDx=0;exitDy=0;exitPerimeter=0;startArrow=classic;startFill=1;dashed=1;entryX=1;entryY=0.5;entryDx=0;entryDy=0;entryPerimeter=0;" parent="1" source="lhokiOedD1wRkCvFBzF--23" target="lhokiOedD1wRkCvFBzF--1" edge="1">
          <mxGeometry relative="1" as="geometry">
            <mxPoint x="620" y="385" as="targetPoint" />
            <mxPoint x="620" y="340" as="sourcePoint" />
          </mxGeometry>
        </mxCell>
        <mxCell id="Lnd7dqwJ6gBZuBjxFB_a-4" value="" style="edgeStyle=orthogonalEdgeStyle;rounded=0;orthogonalLoop=1;jettySize=auto;html=1;entryX=0;entryY=0.5;entryDx=0;entryDy=0;entryPerimeter=0;strokeWidth=2;strokeColor=#707070;exitX=1;exitY=0.5;exitDx=0;exitDy=0;exitPerimeter=0;" parent="1" target="lhokiOedD1wRkCvFBzF--3" edge="1" source="5p-e-0pEdj6wU1898hby-13">
          <mxGeometry relative="1" as="geometry">
            <mxPoint x="360" y="200" as="sourcePoint" />
            <mxPoint x="440" y="149" as="targetPoint" />
          </mxGeometry>
        </mxCell>
        <mxCell id="Lnd7dqwJ6gBZuBjxFB_a-5" value="" style="edgeStyle=orthogonalEdgeStyle;rounded=0;orthogonalLoop=1;jettySize=auto;html=1;entryX=0;entryY=0.5;entryDx=0;entryDy=0;entryPerimeter=0;strokeWidth=2;strokeColor=#707070;" parent="1" target="lhokiOedD1wRkCvFBzF--3" edge="1">
          <mxGeometry relative="1" as="geometry">
            <mxPoint x="360" y="80" as="sourcePoint" />
            <mxPoint x="440" y="123" as="targetPoint" />
          </mxGeometry>
        </mxCell>
        <mxCell id="Lnd7dqwJ6gBZuBjxFB_a-9" value="" style="edgeStyle=orthogonalEdgeStyle;rounded=0;orthogonalLoop=1;jettySize=auto;html=1;entryX=-0.006;entryY=0.629;entryDx=0;entryDy=0;entryPerimeter=0;strokeWidth=2;strokeColor=#707070;exitX=1;exitY=0.5;exitDx=0;exitDy=0;exitPerimeter=0;" parent="1" source="5p-e-0pEdj6wU1898hby-16" target="lhokiOedD1wRkCvFBzF--1" edge="1">
          <mxGeometry relative="1" as="geometry">
            <mxPoint x="440" y="490" as="sourcePoint" />
            <mxPoint x="510" y="293" as="targetPoint" />
          </mxGeometry>
        </mxCell>
        <mxCell id="Lnd7dqwJ6gBZuBjxFB_a-10" value="" style="edgeStyle=orthogonalEdgeStyle;rounded=0;orthogonalLoop=1;jettySize=auto;html=1;strokeWidth=2;strokeColor=#707070;exitX=1;exitY=0.75;exitDx=0;exitDy=0;exitPerimeter=0;" parent="1" source="5p-e-0pEdj6wU1898hby-11" target="lhokiOedD1wRkCvFBzF--1" edge="1">
          <mxGeometry relative="1" as="geometry">
            <mxPoint x="450" y="460" as="sourcePoint" />
            <mxPoint x="520" y="263" as="targetPoint" />
            <Array as="points">
              <mxPoint x="395" y="335" />
              <mxPoint x="395" y="376" />
            </Array>
          </mxGeometry>
        </mxCell>
      </root>
    </mxGraphModel>
  </diagram>
</mxfile>
